<?xml version="1.0" encoding="UTF-8" standalone="no"?>
<svg
   width="800"
   height="200"
   viewBox="0 0 800 200"
   version="1.1"
   id="svg200"
   sodipodi:docname="quemvota_logo.svg"
   inkscape:version="1.2.2 (b0a8486541, 2022-12-01)"
   xmlns:inkscape="http://www.inkscape.org/namespaces/inkscape"
   xmlns:sodipodi="http://sodipodi.sourceforge.net/DTD/sodipodi-0.dtd"
   xmlns="http://www.w3.org/2000/svg"
   xmlns:svg="http://www.w3.org/2000/svg">
  <defs
     id="defs204" />
  <sodipodi:namedview
     id="namedview202"
     pagecolor="#ffffff"
     bordercolor="#000000"
     borderopacity="0.25"
     inkscape:showpageshadow="2"
     inkscape:pageopacity="0.0"
     inkscape:pagecheckerboard="0"
     inkscape:deskcolor="#d1d1d1"
     showgrid="false"
     inkscape:zoom="2.8284271"
     inkscape:cx="357.61925"
     inkscape:cy="41.18897"
     inkscape:window-width="2494"
     inkscape:window-height="1371"
     inkscape:window-x="0"
     inkscape:window-y="0"
     inkscape:window-maximized="1"
     inkscape:current-layer="svg200" />
  <circle
     cx="190.77528"
     cy="100.24094"
     r="60"
     fill="#0b4ea2"
     id="circle186" />
  <circle
     cx="190.77528"
     cy="100.24094"
     r="48"
     fill="#2fa84f"
     id="circle188" />
  <polygon
     points="160,100 120,140 80,100 120,60 "
     fill="#f7d046"
     id="polygon190"
     transform="translate(70.775286,0.24093511)" />
  <circle
     cx="190.77528"
     cy="100.24094"
     r="18"
     fill="#1f4fb2"
     id="circle192" />
  <rect
     x="259.23529"
     y="-40.8353"
     width="70"
     height="18"
     rx="9"
     ry="9"
     fill="#0b4ea2"
     transform="rotate(35)"
     id="rect194" />
  <text
     x="260"
     y="115"
     fill="#0B4EA2"
     style="font-size:64px;font-family:Arial;font-weight:700"
     id="text196">Quem</text>
  <text
     x="436.74313"
     y="115.28658"
     fill="#2fa84f"
     style="font-weight:700;font-size:64px;font-family:Arial"
     id="text198">Vota</text>
  <path
     style="fill:#ffffff;fill-opacity:1"
     id="path2089"
     d="m 173.91446,97.880775 c 1.51773,-0.0621 3.02856,-0.21102 4.53742,-0.380407 1.57839,-0.186091 3.16382,-0.331622 4.73741,-0.555609 1.13447,-0.175917 2.27391,-0.314689 3.41866,-0.400792 1.07704,-0.08393 2.15258,-0.08985 3.23034,-0.03356 1.32008,0.04621 2.62504,0.254202 3.93424,0.411577 1.385,0.187654 2.76688,0.358929 4.13749,0.636194 1.38067,0.264414 2.71079,0.733044 4.06293,1.109096 1.16939,0.294673 2.33934,0.604092 3.44439,1.091951 0.85925,0.367685 1.68489,0.808065 2.53899,1.186115 0.0976,0.0387 0.19517,0.0774 0.29276,0.11618 0,0 -2.95489,-2.33083 -2.95489,-2.33083 v 0 c -0.0945,-0.0415 -0.18904,-0.08299 -0.28356,-0.124489 -0.84257,-0.396237 -1.6786,-0.807319 -2.53729,-1.168318 -1.12797,-0.439996 -2.29651,-0.752924 -3.46804,-1.054635 -1.35163,-0.390841 -2.6937,-0.831427 -4.08045,-1.083932 -1.37627,-0.264034 -2.76616,-0.422724 -4.15378,-0.614656 -1.31519,-0.165524 -2.62996,-0.349051 -3.95665,-0.392863 -1.08796,-0.04493 -2.17502,-0.01447 -3.26082,0.07055 -1.14594,0.09933 -2.28576,0.251015 -3.42294,0.423325 -1.5719,0.207748 -3.14922,0.378704 -4.72515,0.552528 -1.50725,0.16606 -3.01917,0.310255 -4.53661,0.32985 0,0 3.04555,2.212723 3.04555,2.212723 z" />
  <path
     sodipodi:type="star"
     style="fill:#ffffff;fill-opacity:1"
     id="path2091"
     inkscape:flatsided="false"
     sodipodi:sides="5"
     sodipodi:cx="196.35742"
     sodipodi:cy="92.154297"
     sodipodi:r1="1.1928462"
     sodipodi:r2="0.59642327"
     sodipodi:arg1="0.23465337"
     sodipodi:arg2="0.86297191"
     inkscape:rounded="0"
     inkscape:randomized="0"
     d="m 197.51758,92.431641 -0.77237,0.175805 -0.29305,0.735929 -0.40588,-0.680243 -0.79046,-0.05129 0.52152,-0.596219 -0.19549,-0.767627 0.7282,0.31176 0.66965,-0.423131 -0.0715,0.788896 z"
     inkscape:transform-center-x="-0.029275781"
     inkscape:transform-center-y="0.085703932" />
</svg>
